# xmcd
#
# Track frame offsets:
#	150
#	15233
#	27991
#	36639
#	45996
#	54702
#	66833
#	83162
#	95542
#	113758
#	126598
#	137191
#	148997
#	169027
#
# Disc length: 2468 seconds
#
# Revision: 1
# Processed by: cddbd v1.4PL0 Copyright (c) Steve Scherf et al.
# Submitted via: audiograbber 1.80
#
DISCID=c809a20e
DTITLE=Claude Giguère - Welcome To My World
DYEAR=1900
DGENRE=
TTITLE0=For The Good Times
TTITLE1=If You Love Me (let me know)
TTITLE2=Welcome To My World
TTITLE3=I Need Your Love Tonight
TTITLE4=Help Me Make It Through The Night
TTITLE5=Oh Lonesome Me
TTITLE6=Green, Green Grass Of Home
TTITLE7=Your Cheating Heart
TTITLE8=Seven Spanish Angels
TTITLE9=Let Me Be There
TTITLE10=When My Blue Moon Turns To Gold Again
TTITLE11=Separate Ways
TTITLE12=All You Ever Do Is Bring Me Down
TTITLE13=Unchained Melody
EXTD=
EXTT0=
EXTT1=
EXTT2=
EXTT3=
EXTT4=
EXTT5=
EXTT6=
EXTT7=
EXTT8=
EXTT9=
EXTT10=
EXTT11=
EXTT12=
EXTT13=
PLAYORDER=
